<?xml version="1.0" encoding="UTF-8"?>
<svg width="37px" height="45px" viewBox="0 0 37 45" version="1.1" xmlns="http://www.w3.org/2000/svg" xmlns:xlink="http://www.w3.org/1999/xlink">
    <title>mima@2x</title>
    <defs>
        <polygon id="path-1" points="0.00376440169 0.00462524792 36.2583406 0.00462524792 36.2583406 25.6263736 0.00376440169 25.6263736"></polygon>
    </defs>
    <g id="页面-1" stroke="none" stroke-width="1" fill="none" fill-rule="evenodd">
        <g id="登录页面新版-备份-4" transform="translate(-1266.000000, -581.000000)">
            <g id="登录框-copy" transform="translate(1240.000000, 466.000000)">
                <g id="mima" transform="translate(26.000000, 115.000000)">
                    <g id="Group-3" transform="translate(0.000000, 18.373626)">
                        <mask id="mask-2" fill="white">
                            <use xlink:href="#path-1"></use>
                        </mask>
                        <g id="Clip-2"></g>
                        <path d="M30.8761873,25.6263736 L5.38215331,25.6263736 C2.41743602,25.6263736 0,23.0329846 0,19.841376 L0,5.78987285 C0,2.59807676 2.4125423,0.00462524792 5.38215331,0.00462524792 L30.8761873,0.00462524792 C33.8409046,0.00462524792 36.2583406,2.59807676 36.2583406,5.78987285 L36.2583406,19.841376 C36.2534469,23.0329846 33.8406536,25.6263736 30.8761873,25.6263736 Z M5.38215331,2.06261056 C3.47253508,2.06261056 1.91946842,3.73163752 1.91946842,5.78962284 L1.91946842,19.841376 C1.91946842,21.8944861 3.47253508,23.5681383 5.38215331,23.5681383 L30.8761873,23.5681383 C32.7858055,23.5681383 34.3388722,21.8993614 34.3388722,19.841376 L34.3388722,5.78962284 C34.3388722,3.73651278 32.7858055,2.06261056 30.8761873,2.06261056 L5.38215331,2.06261056 Z" id="Fill-1" fill="#FFFFFF" mask="url(#mask-2)"></path>
                    </g>
                    <path d="M18.1755651,26.4084132 C16.5654539,26.4084132 15.2598239,27.7303768 15.2598239,29.3630142 C15.2598239,30.2362337 15.6368541,31.0253059 16.2318412,31.567892 L16.2318412,34.2905806 C16.2318412,35.3808854 17.1021162,36.2637363 18.1755651,36.2637363 C19.2489519,36.2637363 20.119289,35.3808854 20.119289,34.2905806 L20.119289,31.567892 C20.7139656,31.0253059 21.0910092,30.2411761 21.0910092,29.3630142 C21.0958406,27.7303768 19.7905212,26.4084132 18.1755651,26.4084132 Z M29.010989,14.3288863 L29.010989,11.7886861 C29.010989,10.9550056 28.9192471,10.126331 28.7353284,9.32243162 C28.3777399,7.76380343 27.6185241,5.50474934 26.0518304,3.59096581 C25.1575174,2.4959088 24.0889754,1.6375164 22.8850256,1.04075405 C21.4923123,0.350212945 19.9064875,0 18.1658133,0 L18.1367441,0 C11.3481518,0.014827181 8.76142684,5.17430597 7.8234479,8.25214994 C7.44610719,9.48527716 7.25274725,10.7874712 7.25274725,12.1190661 L7.30585446,19.720024 L9.35610338,19.7054502 L9.30299617,12.1141237 C9.30299617,10.9946081 9.46237991,9.89961449 9.78170643,8.86373947 C10.7245924,5.77106833 12.9390699,2.08651386 18.1415889,2.07662907 L18.1658133,2.07662907 C24.0792236,2.07662907 26.071272,6.91035343 26.7336524,9.79588759 C26.8835949,10.4422006 26.9561437,11.1129088 26.9561437,11.7886861 L26.9561437,14.3388345 C26.9561437,14.9108215 27.4154124,15.3795885 27.9812681,15.3795885 C28.5468134,15.3795885 29.0063926,14.9157639 29.0063926,14.3388345 C29.010989,14.3338287 29.010989,14.3288863 29.010989,14.3288863 Z" id="Fill-4" fill="#FFFFFF"></path>
                </g>
            </g>
        </g>
    </g>
</svg>