<?xml version="1.0" encoding="UTF-8"?>
<svg width="39px" height="44px" viewBox="0 0 39 44" version="1.1" xmlns="http://www.w3.org/2000/svg" xmlns:xlink="http://www.w3.org/1999/xlink">
    <title>用户名@2x</title>
    <g id="页面-1" stroke="none" stroke-width="1" fill="none" fill-rule="evenodd">
        <g id="登录页面新版-备份-4" transform="translate(-1266.000000, -477.000000)" fill="#FFFFFF">
            <g id="登录框-copy" transform="translate(1240.000000, 466.000000)">
                <g id="用户名" transform="translate(26.000000, 11.000000)">
                    <path d="M32.4645459,28.4998529 C32.0646929,28.1 31.4172406,28.1 31.0176275,28.4998529 C30.618734,28.8992261 30.618734,29.5480577 31.0185869,29.947431 C34.111031,33.0401149 36.8373829,38.1746993 36.8373829,42.5472965 C36.8373829,43.1127754 37.295103,43.5709752 37.8605219,43.5709752 C38.4260008,43.5709752 38.8837209,43.1130152 38.8837209,42.5472965 C38.8837209,37.6277499 35.9439502,31.9792572 32.4645459,28.4998529 Z M19.4418605,0.610709015 C12.6708652,0.610709015 7.16263289,6.11894131 7.16263289,12.8899366 C7.16263289,17.7197741 9.96538143,21.9059371 14.0294538,23.9098792 C11.1852687,24.7798052 8.57980819,26.3385002 6.41821559,28.5007524 C2.93881128,31.9790174 0,37.6277499 0,42.5472965 C0,43.1127754 0.457720096,43.5709752 1.0233789,43.5709752 C1.58885781,43.5709752 2.04657791,43.1130152 2.04657791,42.5472965 C2.04657791,38.1746993 4.77268996,33.0401149 7.86537386,29.947431 C10.8458615,26.9659839 14.7753102,25.276863 18.9735864,25.1590899 C19.1288982,25.1649066 19.2851694,25.1689243 19.4418605,25.1689243 C26.2130956,25.1689243 31.7210281,19.6611717 31.7210281,12.8899366 C31.7210281,6.11894131 26.2130956,0.610709015 19.4418605,0.610709015 Z M19.6067668,23.1202476 C19.5524377,23.1113127 19.4966693,23.105436 19.4400015,23.105436 C19.2849296,23.105436 19.1298576,23.1075948 18.9755053,23.1113127 C13.5492464,22.8665316 9.2092108,18.3754418 9.2092108,12.8899366 C9.2092108,7.24798022 13.800144,2.65752678 19.4418605,2.65752678 C25.083577,2.65752678 29.67469,7.24798022 29.67469,12.8899366 C29.67469,18.4766043 25.1728063,23.0316779 19.6067668,23.1202476 Z" id="Combined-Shape"></path>
                    <rect id="Rectangle" x="0" y="41.9534884" width="38.8837209" height="2.04651163" rx="1"></rect>
                </g>
            </g>
        </g>
    </g>
</svg>